<?xml version="1.0" standalone="no"?><!DOCTYPE svg PUBLIC "-//W3C//DTD SVG 1.1//EN" "http://www.w3.org/Graphics/SVG/1.1/DTD/svg11.dtd"><svg t="1635995388176" class="icon" viewBox="0 0 1024 1024" version="1.1" xmlns="http://www.w3.org/2000/svg" p-id="1071" xmlns:xlink="http://www.w3.org/1999/xlink" width="200" height="200"><defs><style type="text/css"></style></defs><path d="M885.38 315.92a424.98 424.98 0 0 0-43.32-63.96 32.16 32.16 0 0 0-49.86 40.8 355.92 355.92 0 0 1 80.7 225.48 355.8 355.8 0 0 1-355.32 355.32 355.68 355.68 0 0 1-355.26-355.32 355.02 355.02 0 0 1 85.74-231.42 32.16 32.16 0 1 0-48.9-41.88 420 420 0 0 0-101.28 273.36A420.18 420.18 0 0 0 517.58 938a420.18 420.18 0 0 0 419.7-419.7 419.58 419.58 0 0 0-51.9-202.38z" p-id="1072"></path><path d="M560.6 516.5a42.96 42.96 0 1 1-85.92 0V134.96a43.02 43.02 0 0 1 85.92 0v381.54z" p-id="1073"></path></svg>