<?xml version="1.0" standalone="no"?><!DOCTYPE svg PUBLIC "-//W3C//DTD SVG 1.1//EN" "http://www.w3.org/Graphics/SVG/1.1/DTD/svg11.dtd"><svg t="1636769618026" class="icon" viewBox="0 0 1024 1024" version="1.1" xmlns="http://www.w3.org/2000/svg" p-id="996" xmlns:xlink="http://www.w3.org/1999/xlink" width="200" height="200"><defs><style type="text/css"></style></defs><path d="M835.41333333 938.34666667H190.72c-59.09333333 0-107.41333333-48.32-107.41333333-107.41333334V186.13333333c0-59.09333333 48.32-107.41333333 107.41333333-107.41333333h644.8c59.09333333 0 107.41333333 48.32 107.41333333 107.41333333V830.93333333c0 58.98666667-48.32 107.41333333-107.52 107.41333334zM190.72 132.37333333c-32.21333333 0-53.76 21.44-53.76 53.76V830.93333333c0 32.21333333 21.44 53.76 53.76 53.76h644.8c32.21333333 0 53.76-21.44 53.76-53.76V186.13333333c0-32.21333333-21.44-53.76-53.76-53.76H190.72z m0 0" p-id="997"></path><path d="M728 535.36h-429.86666667c-16.10666667 0-26.88-10.77333333-26.88-26.88s10.77333333-26.88 26.88-26.88h429.86666667c16.10666667 0 26.88 10.77333333 26.88 26.88s-10.77333333 26.88-26.88 26.88z m0 0" p-id="998"></path></svg>