<?xml version="1.0" standalone="no"?><!DOCTYPE svg PUBLIC "-//W3C//DTD SVG 1.1//EN" "http://www.w3.org/Graphics/SVG/1.1/DTD/svg11.dtd"><svg t="1636769611435" class="icon" viewBox="0 0 1024 1024" version="1.1" xmlns="http://www.w3.org/2000/svg" p-id="856" xmlns:xlink="http://www.w3.org/1999/xlink" width="200" height="200"><defs><style type="text/css"></style></defs><path d="M827.60855187 931.24222156H196.42531531c-58.11613594 0-105.15769406-47.04155812-105.15769406-105.157695V194.90129094c0-58.15000313 47.04155812-105.19156125 105.15769406-105.19156125h631.18323657c58.11613594 0 105.15769406 47.04155812 105.15769406 105.19156125v631.18323562c0 58.11613594-47.04155812 105.15769406-105.15769406 105.157695zM880.23819969 194.90129094c0-29.02420125-23.60544656-52.62964781-52.62964781-52.62964782H196.42531531c-29.02420125 0-52.62964781 23.60544656-52.62964781 52.62964782v631.18323562c0 29.02420125 23.60544656 52.62964781 52.62964781 52.62964781h631.18323657c29.02420125 0 52.62964781-23.60544656 52.62964781-52.62964781V194.90129094z m-210.41699063 341.85564093h-131.54025187v131.54025282c0 14.52903375-11.7519225 26.28095719-26.28095719 26.28095718-14.52903375 0-26.28095719-11.7519225-26.28095719-26.28095718v-131.54025282H354.21265812a26.28095719 26.28095719 0 0 1-26.28095718-26.28095625c0-14.52903375 11.7519225-26.28095719 26.28095719-26.28095718h131.54025187V352.68863375c0-14.52903375 11.7519225-26.28095719 26.28095719-26.28095719 14.52903375 0 26.28095719 11.7519225 26.28095719 26.28095719v131.50638469h131.54025187a26.28095719 26.28095719 0 0 1 26.28095719 26.28095718c-0.06773437 14.52903375-11.81965687 26.28095719-26.31482438 26.28095625z" fill="#231815" p-id="857"></path></svg>