<?xml version="1.0" standalone="no"?><!DOCTYPE svg PUBLIC "-//W3C//DTD SVG 1.1//EN" "http://www.w3.org/Graphics/SVG/1.1/DTD/svg11.dtd"><svg t="1635995332079" class="icon" viewBox="0 0 1024 1024" version="1.1" xmlns="http://www.w3.org/2000/svg" p-id="935" xmlns:xlink="http://www.w3.org/1999/xlink" width="200" height="200"><defs><style type="text/css"></style></defs><path d="M696.10554842 406.32341545q-1.47284464 15.46486578-8.46885522 24.6701433t-14.36023303 14.36023304q-8.83706636 5.89137782-19.14697737 8.10064405-5.89137782 12.51917723-12.51917725 23.56550984-5.89137782 9.57348868-12.15096607 18.77876622t-12.15096608 14.36023303q-6.62779942 5.89137782-12.51917723 9.94169985t-10.30991101 8.46885521-7.36422173 10.67812144-4.4185332 15.09665463q-1.47284464 10.309911-3.31389971 20.61982129t-0.73642231 20.61982128 6.99601059 20.25161015 20.61982128 18.04234389l0 216.50812462q0 5.89137782 2.20926624 11.41454375t5.89137782 9.20527754q-35.34826548 3.68211087-68.48726402 5.89137782t-58.177353 2.20926623q-21.35624361 0-49.70849779-1.8410558t-58.54556416-4.41853319-59.65019764-5.89137781-53.7588198-6.99601059-41.2396426-7.36422172-21.3562436-7.36422174q-8.10064405-5.89137782-12.15096607-36.08468779t3.3138997-78.06075271q2.94568854-18.41055506 12.15096609-30.19330997t22.46087707-20.25161013 29.45688767-13.62381071 33.13899852-9.94169986 32.77078737-10.309911 29.08867649-13.62381071q15.46486578-9.57348868 23.93372101-18.77876622t11.78275491-18.0423439 3.31389971-18.41055505-0.73642232-20.6198213q-1.47284464-17.67413273-11.78275491-27.24762143t-22.09266594-19.88339896q-5.89137782-5.15495551-11.78275491-14.36023304t-10.309911-18.77876621q-5.15495551-11.04633261-10.30991101-23.56550986-8.10064405-1.47284464-15.46486578-5.1549555-6.62779942-3.68211087-13.25559956-10.309911t-10.30991101-19.14697738q-4.41853319-12.51917723-1.8410558-22.82908824t7.73243291-17.67413274q5.89137782-8.10064405 14.72844419-15.46486578 0.73642232-27.98404302 5.89137781-55.96808678 4.41853319-23.56550984 12.88738839-50.81313126t23.933721-48.60386503q13.99202187-20.61982129 31.29794347-33.50720969t35.34826546-20.25161014 36.08468781-9.94169983 34.98005432-2.5774774q21.35624361 0 41.23964257 4.78674434t36.8211094 12.8873884 30.19330998 18.41055506 21.35624361 20.61982129q19.14697737 23.56550984 29.82509882 52.28597589t16.56949926 53.75881983q6.62779942 29.45688766 8.83706637 58.91377532 7.36422173 3.68211087 13.25559955 9.57348868 5.15495551 5.15495551 8.46885521 13.25559956t1.8410558 20.61982129zM809.51456588 650.0791615q11.78275493 0 19.5151878 8.10064405t7.7324329 19.14697736l0 125.19177311q0 5.89137782-7.7324329 18.77876622t-18.0423439 26.5111991-20.61982128 23.933721-16.20128812 10.30991101l-94.99846311 0q-11.78275493 0-19.5151878-7.73243289t-7.73243292-19.51518781l0-177.47774828q0-11.04633261 7.73243292-19.14697738t19.5151878-8.10064405l130.34672788 0zM708.62472566 695.73733725q-5.89137782 0-9.57348869 4.78674435t-3.68211088 17.30592158q0 8.83706636 3.68211088 15.83307695t9.57348869 6.99601057l73.64221951 0q5.89137782 0 6.62779941-8.4688552t0.73642232-14.36023303-0.73642232-13.99202189-6.62779941-8.10064405l-73.64221951 0zM777.84841198 828.29333209q5.89137782 0 9.20527752-8.83706638t3.31389971-14.72844419-3.31389971-12.51917724-9.20527752-6.62779941l-70.69653024 0q-5.89137782 0-9.20527753 7.36422173t-3.3138997 13.25559956 3.3138997 13.99202188 9.20527753 8.10064405l70.69653024 0z" p-id="936"></path></svg>